<?xml version="1.0" encoding="UTF-8" standalone="no"?>
<!DOCTYPE svg PUBLIC "-//W3C//DTD SVG 1.1//EN" "http://www.w3.org/Graphics/SVG/1.1/DTD/svg11.dtd">
<svg width="100%" height="100%" viewBox="0 0 112 112" version="1.1" xmlns="http://www.w3.org/2000/svg" xmlns:xlink="http://www.w3.org/1999/xlink" xml:space="preserve" style="fill-rule:evenodd;clip-rule:evenodd;stroke-linejoin:round;stroke-miterlimit:1.41421;">
    <g transform="matrix(1.92035,0,0,1.92035,10.8717,1.75)">
        <path d="M33.2,5.2L30,0L16.9,0L13.8,5.2L23.5,14.7L33.2,5.2L33.2,5.2ZM18.6,2.9L28.4,2.9L29.5,4.8L23.4,10.8L17.3,4.8L18.6,2.9L18.6,2.9Z" style="fill:url(#_Linear1);fill-rule:nonzero;"/>
        <path d="M29.9,10.4L29.1,13.2C37.9,15.7 44.1,23.8 44.1,33C44.1,44.4 34.9,53.6 23.5,53.6C12.1,53.6 2.9,44.3 2.9,33C2.9,23.9 9,15.7 17.8,13.2L17,10.4C7,13.3 0,22.6 0,33C0,45.9 10.5,56.5 23.5,56.5C36.4,56.5 47,46 47,33C46.9,22.5 39.9,13.2 29.9,10.4L29.9,10.4Z" style="fill:url(#_Linear2);fill-rule:nonzero;"/>
        <g transform="matrix(1.83817,0,0,1.83817,-10.69,-26.3828)">
            <path d="M21.466,40.868C21.466,41.268 21.766,41.268 21.766,41.268L22.866,41.268C22.866,41.268 23.166,41.268 23.166,40.968C23.166,40.568 23.1,35 23.1,35C23.1,34.6 23.1,33.3 22.4,32.5C21.8,31.8 20.9,31.4 19.6,31.4L17,31.4C16.2,31.4 14.1,32.1 14.1,35C14.1,35 14.166,40.735 14.166,41.035C14.166,41.435 14.466,41.335 14.466,41.335L15.666,41.335C15.666,41.335 15.966,41.435 15.966,40.935C15.966,40.535 15.9,34.9 15.9,34.9C15.9,33.2 17.1,33 17.3,33L19.8,33C21.6,33 21.5,34.9 21.5,34.9C21.4,34.9 21.466,40.468 21.466,40.868Z" style="fill:url(#_Linear3);fill-rule:nonzero;"/>
        </g>
        <g transform="matrix(1.83817,0,0,1.83817,-10.69,-26.3828)">
            <path d="M22,26.8C22,24.9 20.5,23.4 18.6,23.4C16.7,23.4 15.2,24.9 15.2,26.8C15.2,28.7 16.7,30.2 18.6,30.2C20.5,30.2 22,28.7 22,26.8ZM16.9,26.8C16.9,25.9 17.7,25.1 18.6,25.1C19.5,25.1 20.3,25.9 20.3,26.8C20.3,27.7 19.5,28.5 18.6,28.5C17.7,28.5 16.9,27.8 16.9,26.8Z" style="fill:url(#_Linear4);fill-rule:nonzero;"/>
        </g>
    </g>
    <defs>
        <linearGradient id="_Linear1" x1="0" y1="0" x2="1" y2="0" gradientUnits="userSpaceOnUse" gradientTransform="matrix(-17.5316,49.1458,-49.1458,-17.5316,24.7072,1.7833)"><stop offset="0" style="stop-color:rgb(255,140,28);stop-opacity:1"/><stop offset="1" style="stop-color:rgb(242,94,0);stop-opacity:1"/></linearGradient>
        <linearGradient id="_Linear2" x1="0" y1="0" x2="1" y2="0" gradientUnits="userSpaceOnUse" gradientTransform="matrix(-17.5317,49.1462,-49.1462,-17.5317,33.4872,4.9143)"><stop offset="0" style="stop-color:rgb(255,140,28);stop-opacity:1"/><stop offset="1" style="stop-color:rgb(242,94,0);stop-opacity:1"/></linearGradient>
        <linearGradient id="_Linear3" x1="0" y1="0" x2="1" y2="0" gradientUnits="userSpaceOnUse" gradientTransform="matrix(-17.5306,49.1431,-49.1431,-17.5306,32.3897,4.5257)"><stop offset="0" style="stop-color:rgb(255,140,28);stop-opacity:1"/><stop offset="1" style="stop-color:rgb(242,94,0);stop-opacity:1"/></linearGradient>
        <linearGradient id="_Linear4" x1="0" y1="0" x2="1" y2="0" gradientUnits="userSpaceOnUse" gradientTransform="matrix(-17.5298,49.1409,-49.1409,-17.5298,27.2376,2.688)"><stop offset="0" style="stop-color:rgb(255,140,28);stop-opacity:1"/><stop offset="1" style="stop-color:rgb(242,94,0);stop-opacity:1"/></linearGradient>
    </defs>
</svg>
